<?xml version="1.0" encoding="UTF-8" standalone="no"?>
<svg width="109px" height="50px" viewBox="0 0 109 50" version="1.1" xmlns="http://www.w3.org/2000/svg" xmlns:xlink="http://www.w3.org/1999/xlink" xmlns:sketch="http://www.bohemiancoding.com/sketch/ns">
    <!-- Generator: Sketch 3.5.1 (25234) - http://www.bohemiancoding.com/sketch -->
    <title>Logo</title>
    <desc>Created with Sketch.</desc>
    <defs></defs>
    <g id="Step-Payment" stroke="none" stroke-width="1" fill="none" fill-rule="evenodd" sketch:type="MSPage">
        <g id="02-Wizard/Step-Payment/Home-768" sketch:type="MSArtboardGroup" transform="translate(-330.000000, -168.000000)">
            <g id="MAIN" sketch:type="MSLayerGroup">
                <g id="Logo" transform="translate(330.000000, 168.000000)" sketch:type="MSShapeGroup">
                    <path d="M102.626198,50 C105.108626,50 107.054313,49.4604106 108.865815,48.516129 L108.865815,44.0645161 C107.054313,44.941349 105.578275,45.2785924 103.833866,45.2785924 C100.345048,45.2785924 97.9968051,43.7272727 97.9968051,39.4780059 L97.9968051,19.1085044 L109,19.1085044 L109,14.5219941 L97.9968051,14.5219941 L97.9968051,4 L92.8306709,4 L92.8306709,14.5219941 L88,14.5219941 L88,19.1085044 L92.8306709,19.1085044 L92.8306709,40.1524927 C92.8306709,47.2346041 97.057508,50 102.626198,50 L102.626198,50 L102.626198,50 Z M76,49 L81,49 L81,14 L76,14 L76,49 L76,49 Z M82,7 L82,1 L76,1 L76,7 L82,7 Z M40,49 L45.2004357,49 L45.2004357,39.9383562 L52.291939,32.8232877 L64.7864924,49 L71,49 L55.8714597,29.1986301 L70.5272331,14.2972603 L64.043573,14.2972603 L45.2004357,33.830137 L45.2004357,0 L40,0 L40,49 L40,49 Z" id="ukit" fill="#FFFFFF"></path>
                    <path d="M13.1707317,50 C19.0909091,50 22.616408,46.9318182 24.9445676,43.1136364 L24.9445676,49.25 L30,49.25 L30,14 L24.9445676,14 L24.9445676,34.1818182 C24.9445676,40.7954545 20.4878049,45.2272727 14.6341464,45.2272727 C8.58093128,45.2272727 5.12195121,41.1363636 5.12195121,34.5909091 L5.12195121,14 L0,14 L0,35.8863636 C0,44.2727273 4.85587583,50 13.1707317,50 L13.1707317,50 L13.1707317,50 Z" id="Path" fill="#338FFF"></path>
                </g>
            </g>
        </g>
    </g>
</svg>