<?xml version="1.0" encoding="utf-8"?>
<!-- Generated by IcoMoon.io -->
<!DOCTYPE svg PUBLIC "-//W3C//DTD SVG 1.1//EN" "http://www.w3.org/Graphics/SVG/1.1/DTD/svg11.dtd">
<svg version="1.1" xmlns="http://www.w3.org/2000/svg" xmlns:xlink="http://www.w3.org/1999/xlink" width="19" height="16" viewBox="0 0 19 16">
<path fill="#FFFFFF" d="M15.714 7.448l-2.489-2.489-0.905 0.905 2.489 2.489-2.489 2.489 0.905 0.905 2.489-2.489 2.489 2.489 0.905-0.905-2.489-2.489 2.489-2.489-0.905-0.905-2.489 2.489zM4.073 11.56l4.162 4.213c0.157 0.159 0.335 0.227 0.559 0.227 0.223 0 0.403-0.068 0.559-0.227s0.246-0.362 0.246-0.566v-13.774c0-0.204-0.090-0.408-0.246-0.566s-0.336-0.226-0.559-0.226c-0.224 0-0.403 0.068-0.559 0.226l-4.162 4.214h-2.156c-1.059 0-1.917 0.86-1.917 1.918v2.644c0 1.059 0.864 1.918 1.917 1.918h2.156z"></path>
</svg>
