<?xml version="1.0" encoding="utf-8"?>
<!-- Generated by IcoMoon.io -->
<!DOCTYPE svg PUBLIC "-//W3C//DTD SVG 1.1//EN" "http://www.w3.org/Graphics/SVG/1.1/DTD/svg11.dtd">
<svg version="1.1" xmlns="http://www.w3.org/2000/svg" xmlns:xlink="http://www.w3.org/1999/xlink" width="19" height="16" viewBox="0 0 19 16">
<path fill="#FFFFFF" d="M4.073 11.56l4.162 4.213c0.157 0.159 0.335 0.227 0.559 0.227 0.223 0 0.403-0.068 0.559-0.227s0.246-0.362 0.246-0.566v-13.774c0-0.204-0.090-0.408-0.246-0.566s-0.336-0.226-0.559-0.226c-0.224 0-0.403 0.068-0.559 0.226l-4.162 4.214h-2.156c-1.059 0-1.917 0.86-1.917 1.918v2.644c0 1.059 0.864 1.918 1.917 1.918h2.156zM13.028 15.778c0.145 0.141 0.31 0.222 0.518 0.222 0.082 0 0.186-0.021 0.29-0.061 1.616-0.685 2.921-1.733 3.894-3.183s1.47-3.023 1.47-4.755c0-1.733-0.497-3.305-1.47-4.755s-2.279-2.499-3.894-3.184c-0.103-0.040-0.208-0.060-0.29-0.060-0.208 0-0.373 0.081-0.518 0.222s-0.228 0.303-0.228 0.504c0 0.262 0.145 0.484 0.455 0.665 0.042 0.020 0.146 0.060 0.249 0.12 0.124 0.040 0.207 0.081 0.269 0.101 0.352 0.201 0.663 0.382 0.952 0.584 0.932 0.685 1.678 1.531 2.217 2.559 0.518 1.007 0.787 2.095 0.787 3.245s-0.269 2.236-0.787 3.245c-0.539 1.027-1.285 1.874-2.217 2.559-0.29 0.202-0.601 0.383-0.952 0.584-0.063 0.021-0.146 0.060-0.269 0.101-0.103 0.061-0.208 0.101-0.249 0.121-0.31 0.181-0.455 0.403-0.455 0.665 0 0.201 0.082 0.363 0.228 0.504v0zM12.883 13.44c0.101 0 0.181-0.020 0.281-0.061 1.045-0.45 1.888-1.165 2.532-2.148 0.622-0.981 0.944-2.066 0.944-3.231s-0.322-2.25-0.944-3.232c-0.643-0.981-1.486-1.697-2.532-2.147-0.1-0.041-0.18-0.062-0.281-0.062-0.2 0-0.362 0.082-0.502 0.225s-0.221 0.307-0.221 0.511c0 0.287 0.14 0.511 0.442 0.675 0.422 0.225 0.703 0.389 0.844 0.491 0.562 0.429 0.984 0.94 1.306 1.554 0.301 0.613 0.462 1.288 0.462 1.984s-0.161 1.37-0.462 1.984c-0.321 0.613-0.744 1.125-1.306 1.554-0.14 0.102-0.422 0.266-0.844 0.491-0.302 0.163-0.442 0.388-0.442 0.674 0 0.205 0.081 0.368 0.221 0.512s0.302 0.224 0.502 0.224zM11.727 10.665c0.132 0.15 0.283 0.215 0.47 0.215 0.095 0 0.189-0.022 0.264-0.065 0.489-0.214 0.885-0.601 1.166-1.117 0.301-0.516 0.452-1.096 0.452-1.698s-0.151-1.182-0.452-1.698c-0.282-0.537-0.678-0.903-1.166-1.118-0.075-0.042-0.169-0.064-0.264-0.064-0.188 0-0.339 0.064-0.47 0.215s-0.207 0.344-0.207 0.558c0 0.172 0.038 0.301 0.132 0.43 0.075 0.107 0.189 0.215 0.301 0.301 0.113 0.065 0.245 0.172 0.358 0.259 0.113 0.107 0.226 0.258 0.301 0.43 0.094 0.193 0.132 0.408 0.132 0.687s-0.038 0.494-0.132 0.687c-0.075 0.172-0.188 0.323-0.301 0.43-0.113 0.086-0.245 0.193-0.358 0.258-0.112 0.086-0.226 0.193-0.301 0.302-0.094 0.128-0.132 0.258-0.132 0.43 0 0.214 0.075 0.408 0.207 0.558v0z"></path>
</svg>
